HIERARCHY
ROOT Hips
{
	OFFSET 0.000000 0.000000 0.000000
	CHANNELS 6 Xposition Yposition Zposition Zrotation Yrotation Xrotation 
	JOINT LowerBack
	{
		OFFSET 0.000000 0.000000 0.000000
		CHANNELS 3 Zrotation Yrotation Xrotation
		JOINT Spine
		{
			OFFSET 0.028270 2.035590 -0.193380
			CHANNELS 3 Zrotation Yrotation Xrotation
			JOINT Spine1
			{
				OFFSET 0.056720 2.048850 -0.042750
				CHANNELS 3 Zrotation Yrotation Xrotation
				JOINT Neck
				{
					OFFSET 0.000000 0.000000 0.000000
					CHANNELS 3 Zrotation Yrotation Xrotation
					JOINT Neck1
					{
						OFFSET -0.054170 1.746240 0.172020
						CHANNELS 3 Zrotation Yrotation Xrotation
						JOINT Head
						{
							OFFSET 0.104070 1.761360 -0.123970
							CHANNELS 3 Zrotation Yrotation Xrotation
							End Site
							{
								OFFSET 0.000000 0.000000 0.000000
							}
						}
					}
				}
				JOINT LeftShoulder
				{
					OFFSET 0.000000 0.000000 0.000000
					CHANNELS 3 Zrotation Yrotation Xrotation
					JOINT LeftArm
					{
						OFFSET 3.362410 1.200890 -0.311210
						CHANNELS 3 Zrotation Yrotation Xrotation
						JOINT LeftForeArm
						{
							OFFSET 4.983000 -0.000000 -0.000000
							CHANNELS 3 Zrotation Yrotation Xrotation
							JOINT LeftHand
							{
								OFFSET 3.483560 -0.000000 -0.000000
								CHANNELS 3 Zrotation Yrotation Xrotation
								JOINT LeftFingerBase
								{
									OFFSET 0.000000 0.000000 0.000000
									CHANNELS 3 Zrotation Yrotation Xrotation
									JOINT LeftHandIndex1
									{
										OFFSET 0.715260 -0.000000 -0.000000
										CHANNELS 3 Zrotation Yrotation Xrotation
										End Site
										{
											OFFSET 0.000000 0.000000 0.000000
										}
									}
								}
								JOINT LThumb
								{
									OFFSET 0.000000 0.000000 0.000000
									CHANNELS 3 Zrotation Yrotation Xrotation
									End Site
									{
										OFFSET 0.000000 0.000000 0.000000
									}
								}
							}
						}
					}
				}
				JOINT RightShoulder
				{
					OFFSET 0.000000 0.000000 0.000000
					CHANNELS 3 Zrotation Yrotation Xrotation
					JOINT RightArm
					{
						OFFSET -3.136600 1.374050 -0.404650
						CHANNELS 3 Zrotation Yrotation Xrotation
						JOINT RightForeArm
						{
							OFFSET -5.241900 -0.000000 -0.000000
							CHANNELS 3 Zrotation Yrotation Xrotation
							JOINT RightHand
							{
								OFFSET -3.444170 -0.000000 -0.000000
								CHANNELS 3 Zrotation Yrotation Xrotation
								JOINT RightFingerBase
								{
									OFFSET 0.000000 0.000000 0.000000
									CHANNELS 3 Zrotation Yrotation Xrotation
									JOINT RightHandIndex1
									{
										OFFSET -0.622530 -0.000000 -0.000000
										CHANNELS 3 Zrotation Yrotation Xrotation
										End Site
										{
											OFFSET 0.000000 0.000000 0.000000
										}
									}
								}
								JOINT RThumb
								{
									OFFSET 0.000000 0.000000 0.000000
									CHANNELS 3 Zrotation Yrotation Xrotation
									End Site
									{
										OFFSET 0.000000 0.000000 0.000000
									}
								}
							}
						}
					}
				}
			}
		}
	}
}
}
MOTION
Frames: 14
Frame Time: 0.008333
4.899715 16.993144 4.313645 2.080313 14.822768 11.027737 5.521744 -3.438758 -1.118502 0.392927 -3.903031 -2.943725 -7.046001 -3.947373 1.241243 9.043922 -6.885510 -6.606710 -4.442669 -0.341839 0.241262 0.000000 0.000000 0.000000 -5.992921 5.135025 2.157941 -48.631824 -10.111225 9.814457 -2.893362 -45.685678 -0.004438 4.340556 0.083799 0.001089 -0.147853 0.092402 -0.000000 0.000000 0.000000 0.000000 0.000000 0.000000 0.000000 19.092580 -6.591753 0.973543 58.935751 0.369316 -19.200468 4.085729 8.550080 0.006937 -1.495778 3.833094 -0.054596 0.118460 -0.053319 0.000000 0.000000 0.000000 0.000000 0.000000 0.000000 0.000000 
4.930231 17.012051 4.449055 1.765180 14.398253 10.883783 5.888125 -3.362164 -1.090025 0.467185 -3.848591 -2.957025 -7.013532 -3.895071 1.191909 8.994997 -6.787065 -6.571648 -4.438662 -0.342040 0.251967 0.000000 0.000000 0.000000 -6.027666 5.229103 2.086121 -49.906473 -9.783150 10.305662 -2.878128 -45.694454 -0.004181 4.081108 0.127430 0.002673 -0.144402 0.092729 -0.000000 0.000000 0.000000 0.000000 0.000000 0.000000 0.000000 18.976505 -6.425061 0.980669 59.388242 0.341949 -19.196606 4.098239 8.494078 0.006737 -1.385991 3.703143 -0.049097 0.118033 -0.053560 0.000000 0.000000 0.000000 0.000000 0.000000 0.000000 0.000000 
4.956195 17.029678 4.582786 1.488940 13.968868 10.760247 6.180141 -3.286813 -1.053955 0.524451 -3.790212 -2.967273 -6.989168 -3.838636 1.143994 8.973349 -6.678114 -6.529883 -4.434816 -0.342302 0.264291 0.000000 0.000000 0.000000 -6.016483 5.309711 2.020450 -51.132611 -9.448436 10.820639 -2.864753 -45.651615 -0.003931 3.788429 0.205156 0.005253 -0.140884 0.092748 -0.000000 0.000000 0.000000 0.000000 0.000000 0.000000 0.000000 18.891475 -6.246430 0.987126 59.881150 0.332320 -19.071603 4.111766 8.502081 0.006545 -1.209582 3.552730 -0.041596 0.117227 -0.053456 0.000000 0.000000 0.000000 0.000000 0.000000 0.000000 0.000000 
4.977702 17.045765 4.714812 1.258377 13.545328 10.661040 6.393274 -3.215442 -1.016360 0.563879 -3.730721 -2.975592 -6.974013 -3.780899 1.097803 8.979387 -6.565721 -6.482624 -4.432410 -0.342722 0.278004 0.000000 0.000000 0.000000 -5.967881 5.368490 1.961493 -52.292737 -9.099166 11.357978 -2.852910 -45.572497 -0.003671 3.465145 0.311864 0.008231 -0.137270 0.092350 -0.000000 0.000000 0.000000 0.000000 0.000000 0.000000 0.000000 18.844641 -6.065559 0.992654 60.404282 0.347591 -18.821451 4.125750 8.568827 0.006376 -0.975352 3.392932 -0.032595 0.116042 -0.053035 0.000000 0.000000 0.000000 0.000000 0.000000 0.000000 0.000000 
4.995216 17.060229 4.844961 1.069766 13.135745 10.580519 6.537014 -3.149736 -0.976009 0.587575 -3.672383 -2.981944 -6.967984 -3.724131 1.053376 9.008142 -6.451927 -6.431401 -4.432030 -0.343317 0.292671 0.000000 0.000000 0.000000 -5.899060 5.406999 1.910294 -53.371862 -8.741263 11.919052 -2.842863 -45.465741 -0.003394 3.117724 0.440531 0.011207 -0.133593 0.091511 -0.000000 0.000000 0.000000 0.000000 0.000000 0.000000 0.000000 18.833679 -5.886144 0.996976 60.948992 0.393936 -18.455554 4.139415 8.687443 0.006244 -0.694983 3.236369 -0.022993 0.114499 -0.052379 0.000000 0.000000 0.000000 0.000000 0.000000 0.000000 0.000000 
5.009225 17.073148 4.973207 0.921992 12.745126 10.517374 6.617914 -3.090775 -0.935005 0.597095 -3.616853 -2.986781 -6.970716 -3.670005 1.011151 9.055185 -6.340040 -6.378197 -4.434226 -0.344107 0.307751 0.000000 0.000000 0.000000 -5.824467 5.427592 1.867149 -54.359522 -8.379802 12.503807 -2.834843 -45.336159 -0.003095 2.755322 0.581648 0.013681 -0.129897 0.090222 -0.000000 0.000000 0.000000 0.000000 0.000000 0.000000 0.000000 18.857071 -5.712726 0.999696 61.506486 0.477006 -17.985491 4.151684 8.850605 0.006159 -0.383639 3.096145 -0.013390 0.112633 -0.051582 0.000000 0.000000 0.000000 0.000000 0.000000 0.000000 0.000000 
5.020195 17.084770 5.099560 0.813459 12.374530 10.470886 6.642865 -3.038476 -0.895882 0.594011 -3.564672 -2.990794 -6.981619 -3.619101 0.970914 9.115629 -6.228421 -6.323999 -4.439487 -0.345115 0.322952 0.000000 0.000000 0.000000 -5.757599 5.435233 1.832338 -55.249635 -8.020651 13.111247 -2.829172 -45.184719 -0.002777 2.388673 0.724637 0.015255 -0.126246 0.088508 -0.000000 0.000000 0.000000 0.000000 0.000000 0.000000 0.000000 18.911713 -5.543738 1.000508 62.070005 0.597004 -17.431112 4.161365 9.052538 0.006128 -0.056582 2.983055 -0.004186 0.110483 -0.050753 0.000000 0.000000 0.000000 0.000000 0.000000 0.000000 0.000000 
5.028663 17.095414 5.224011 0.741278 12.021484 10.439990 6.619586 -2.992121 -0.860335 0.580146 -3.515723 -2.994451 -6.999457 -3.571342 0.932675 9.184222 -6.119817 -6.270518 -4.447862 -0.346329 0.337799 0.000000 0.000000 0.000000 -5.709125 5.432440 1.805236 -56.042149 -7.664593 13.734566 -2.825616 -45.012202 -0.002444 2.029642 0.859135 0.015729 -0.122678 0.086405 -0.000000 0.000000 0.000000 0.000000 0.000000 0.000000 0.000000 18.992796 -5.381957 0.999463 62.633372 0.759295 -16.803432 4.167306 9.284220 0.006155 0.267757 2.906894 0.004320 0.108119 -0.049999 0.000000 0.000000 0.000000 0.000000 0.000000 0.000000 0.000000 
5.035084 17.105489 5.346620 0.702974 11.679923 10.424709 6.554630 -2.950223 -0.830685 0.557048 -3.469068 -2.998442 -7.022873 -3.525848 0.895922 9.255884 -6.011351 -6.218104 -4.459269 -0.347739 0.352176 0.000000 0.000000 0.000000 -5.686814 5.424366 1.785384 -56.740655 -7.313995 14.366643 -2.824126 -44.815085 -0.002104 1.690665 0.976001 0.015303 -0.119254 0.083974 -0.000000 0.000000 0.000000 0.000000 0.000000 0.000000 0.000000 19.094219 -5.223505 0.996560 63.193111 0.962550 -16.120947 4.168474 9.540404 0.006239 0.574142 2.873057 0.012226 0.105604 -0.049421 0.000000 0.000000 0.000000 0.000000 0.000000 0.000000 0.000000 
5.039818 17.115364 5.467460 0.695898 11.341506 10.424782 6.453895 -2.910763 -0.808448 0.526103 -3.423128 -3.003366 -7.050438 -3.481104 0.859871 9.326357 -5.898651 -6.166465 -4.473451 -0.349327 0.366137 0.000000 0.000000 0.000000 -5.695029 5.416208 1.772158 -57.352321 -6.969286 14.998577 -2.824531 -44.588367 -0.001773 1.383584 1.068397 0.014077 -0.116034 0.081274 -0.000000 0.000000 0.000000 0.000000 0.000000 0.000000 0.000000 19.209647 -5.062483 0.991859 63.748553 1.202564 -15.402512 4.164063 9.817307 0.006375 0.850429 2.883563 0.019334 0.102995 -0.049103 0.000000 0.000000 0.000000 0.000000 0.000000 0.000000 0.000000 
5.043253 17.125347 5.586552 0.715856 10.996570 10.438906 6.322859 -2.871804 -0.793151 0.488775 -3.376230 -3.008630 -7.080102 -3.435391 0.826769 9.392538 -5.793665 -6.119758 -4.489305 -0.350979 0.378549 0.000000 0.000000 0.000000 -5.734644 5.413691 1.763070 -57.888436 -6.632831 15.618684 -2.826259 -44.326905 -0.001460 1.118476 1.132567 0.012452 -0.113039 0.078347 -0.000000 0.000000 0.000000 0.000000 0.000000 0.000000 0.000000 19.333432 -4.910219 0.985436 64.295219 1.496457 -14.625825 4.153709 10.103747 0.006557 1.079638 2.939280 0.025743 0.100413 -0.049075 0.000000 0.000000 0.000000 0.000000 0.000000 0.000000 0.000000 
5.045558 17.135703 5.704022 0.761439 10.635249 10.469086 6.164638 -2.830908 -0.789231 0.445749 -3.326352 -3.016335 -7.110984 -3.386887 0.792034 9.451210 -5.667240 -6.070211 -4.506940 -0.352769 0.391493 0.000000 0.000000 0.000000 -5.802402 5.422769 1.759632 -58.360555 -6.303157 16.219470 -2.829921 -44.020885 -0.001178 0.902452 1.167183 0.010828 -0.110360 0.075267 -0.000000 0.000000 0.000000 0.000000 0.000000 0.000000 0.000000 19.457051 -4.733860 0.977054 64.842410 1.805091 -13.855027 4.137130 10.414555 0.006771 1.270121 3.031746 0.031753 0.097805 -0.049401 0.000000 0.000000 0.000000 0.000000 0.000000 0.000000 0.000000 
5.046890 17.146587 5.819804 0.828707 10.247972 10.510099 5.982127 -2.786510 -0.790826 0.397946 -3.271684 -3.024278 -7.141050 -3.333628 0.759938 9.502216 -5.545049 -6.025119 -4.524797 -0.354522 0.402966 0.000000 0.000000 0.000000 -5.894412 5.446521 1.758093 -58.782095 -5.980888 16.786806 -2.834495 -43.668511 -0.000939 0.740358 1.175735 0.009303 -0.107953 0.072022 -0.000000 0.000000 0.000000 0.000000 0.000000 0.000000 0.000000 19.578456 -4.559454 0.967014 65.383394 2.162626 -13.028677 4.114512 10.734442 0.007006 1.406415 3.158899 0.036965 0.095315 -0.050041 0.000000 0.000000 0.000000 0.000000 0.000000 0.000000 0.000000 
5.047316 17.158012 5.934025 0.916092 9.827824 10.563431 5.776683 -2.736913 -0.802650 0.345710 -3.210832 -3.034907 -7.169701 -3.274462 0.724693 9.543919 -5.391616 -5.974037 -4.542943 -0.356330 0.415802 0.000000 0.000000 0.000000 -6.001601 5.487900 1.760760 -59.166606 -5.662157 17.312992 -2.840904 -43.260605 -0.000748 0.632035 1.162585 0.008079 -0.105874 0.068675 -0.000000 0.000000 0.000000 0.000000 0.000000 0.000000 0.000000 19.689037 -4.347692 0.954932 65.930894 2.518869 -12.222410 4.086142 11.086191 0.007248 1.510304 3.307112 0.041876 0.092821 -0.051021 0.000000 0.000000 0.000000 0.000000 0.000000 0.000000 0.000000 
